<svg width="18" height="22" viewBox="0 0 18 22" fill="none" xmlns="http://www.w3.org/2000/svg">
<path fill-rule="evenodd" clip-rule="evenodd" d="M8.43889 21.7761C8.47161 21.7951 8.49733 21.8097 8.51555 21.82L8.5458 21.8368C8.78724 21.9694 9.08674 21.9684 9.32841 21.8373L9.35945 21.82C9.37767 21.8097 9.40339 21.7951 9.43611 21.7761C9.50155 21.7382 9.59505 21.6829 9.71263 21.6105C9.94767 21.4658 10.2795 21.2524 10.6758 20.9724C11.4672 20.4133 12.5231 19.5839 13.5813 18.5005C15.6874 16.3441 17.875 13.1042 17.875 8.9375C17.875 4.00145 13.8735 0 8.9375 0C4.00145 0 0 4.00145 0 8.9375C0 13.1042 2.1876 16.3441 4.29374 18.5005C5.35194 19.5839 6.40782 20.4133 7.19917 20.9724C7.59552 21.2524 7.92733 21.4658 8.16237 21.6105C8.27995 21.6829 8.37345 21.7382 8.43889 21.7761ZM8.9375 12.1875C10.7324 12.1875 12.1875 10.7324 12.1875 8.9375C12.1875 7.14257 10.7324 5.6875 8.9375 5.6875C7.14257 5.6875 5.6875 7.14257 5.6875 8.9375C5.6875 10.7324 7.14257 12.1875 8.9375 12.1875Z" fill="#112D9F"/>
</svg>
