<?xml version="1.0" encoding="UTF-8"?>
<svg id="Layer_1" data-name="Layer 1" xmlns="http://www.w3.org/2000/svg" xmlns:xlink="http://www.w3.org/1999/xlink" viewBox="0 0 1024 768">
  <defs>
    <linearGradient id="New_Gradient_Swatch_copy_84" data-name="New Gradient Swatch copy 84" x1="667.62" y1="273.26" x2="341.62" y2="817.26" gradientUnits="userSpaceOnUse">
      <stop offset="0" stop-color="#2b3c8e"/>
      <stop offset="1" stop-color="#262261"/>
    </linearGradient>
  </defs>
  <path d="M146.15,588.5c22.16-11.62,48.99-23.99,80.29-35.29,28.86-10.41,55.92-17.89,80.13-23.32,35.47-9.26,72.78-17.63,111.88-24.72.78-.14,1.56-.27,2.35-.41-8.13-25.9-18.12-63.33-24.17-109.19-13.82-104.73.88-181.88.41-179.63-11.71,56.17-18.85,123.57-12.67,199.09,1.25,15.23,2.97,29.95,5.07,44.17-63.7,16.42-120.99,37.43-170.53,59.17-18.94-40.86-29.53-86.37-29.53-134.37,0-176.65,143.2-319.85,319.85-319.85s319.85,143.2,319.85,319.85c0,20.61-1.97,40.75-5.7,60.28-23.23-4.5-47.37-8.29-72.4-11.18-86.3-9.97-167.75-7.51-242.82,2.71,5.93-16.03,14.92-33.42,28.68-49.9,71.94-86.22,202.38-61.56,208.71-60.26-66.05-29.02-117.7-30.18-155.48-23.66-46.95,8.11-73.13,28.2-94.79,18.22,3.56,1.11,7.35,1.71,11.28,1.71,20.95,0,37.93-16.98,37.93-37.93s-16.98-37.93-37.93-37.93c-16.3,0-30.2,10.29-35.56,24.72-1.59-20.22.14-44.31,1.86-68.86,3.28-46.74,13.44-84.37,21.73-109.24-17.71,33.4-36.01,75.58-49.24,125.98-11.91,45.39-17.27,88.17-18.73,126.73-.68,35.5,1.48,75.71,8.9,119.28.57,3.33,1.16,6.62,1.77,9.89,2.08,11.76,4.65,23.82,7.82,36.15,8.07,31.38,18.49,58.75,29.12,81.84-7.89-18.04-16.2-41.37-21.72-69.3-1.59-8.04-2.81-15.79-3.74-23.22,111.15-17.82,214.07-21.55,305.32-17.65,33.03.68,70.08,3.67,110.1,10.63,45.39,7.89,85.06,19.22,118.24,30.94-50.65-9.59-110.19-17.28-176.95-19.19-.14.35-.28.71-.43,1.06-47.91,116.23-162.29,198.05-295.81,198.05-108.52,0-204.4-54.06-262.23-136.71-2.06-2.95-4.07-5.94-6.04-8.96-35.47,9.46-67.19,19.97-94.79,30.32Z" fill="url(#New_Gradient_Swatch_copy_84)"/>
</svg>