<svg width="23" height="23" viewBox="0 0 23 23" fill="none" xmlns="http://www.w3.org/2000/svg">
<path fill-rule="evenodd" clip-rule="evenodd" d="M0 3.25C0 1.45507 1.45507 0 3.25 0H4.73593C5.668 0 6.48047 0.634354 6.70653 1.5386L7.90448 6.33038C8.10269 7.12324 7.80643 7.95768 7.15262 8.44803L5.7512 9.4991C5.60568 9.60824 5.57404 9.76807 5.61492 9.87966C6.84505 13.2378 9.51222 15.9049 12.8703 17.1351C12.9819 17.176 13.1418 17.1443 13.2509 16.9988L14.302 15.5974C14.7923 14.9436 15.6268 14.6473 16.4196 14.8455L21.2114 16.0435C22.1156 16.2695 22.75 17.082 22.75 18.0141V19.5C22.75 21.2949 21.2949 22.75 19.5 22.75H17.0625C7.63914 22.75 0 15.1109 0 5.6875V3.25Z" fill="#112D9F"/>
</svg>
